<?xml version="1.0" standalone="no"?>
<!DOCTYPE svg PUBLIC "-//W3C//DTD SVG 1.1//EN"
"http://www.w3.org/Graphics/SVG/1.1/DTD/svg11.dtd">

<svg width="466" height="581" view_box="0 0 466 581"
xmlns="http://www.w3.org/2000/svg"
xmlns:link="http://www.w3.org/1999/xlink">\n\n<desc>Généré par Mocodo 2.3.7 le Fri, 14 Aug 2020 06:20:21</desc>

<rect id="frame" x="0" y="0" width="466" height="581" fill="#ffffff" stroke="none" stroke-width="0"/>

<!-- Association contenir -->
<line x1="221" y1="337" x2="221" y2="438" stroke="#d6604d" stroke-width="2"/>
<text x="226.0" y="405" fill="#4d4d4d" font-family="Verdana" font-size="12">0,N</text>
<line x1="37" y1="530" x2="221" y2="438" stroke="#d6604d" stroke-width="2"/>
<text x="65" y="531.591247334" fill="#4d4d4d" font-family="Verdana" font-size="12">1,1</text>
<g id="association-contenir">
	<path d="M 239 413 a 14 14 90 0 1 14 14 V 438 h -64 V 427 a 14 14 90 0 1 14 -14" fill="#f4a582" stroke="#f4a582" stroke-width="0"/>
	<path d="M 253 438.0 v 11 a 14 14 90 0 1 -14 14 H 203 a 14 14 90 0 1 -14 -14 V 438.0 H 64" fill="#fddbc7" stroke="#fddbc7" stroke-width="0"/>
	<rect x="189" y="413" width="64" height="50" fill="none" rx="14" stroke="#d6604d" stroke-width="2"/>
	<line x1="189" y1="438" x2="253" y2="438" stroke="#d6604d" stroke-width="1"/>
	<text x="196" y="430.7" fill="#000000" font-family="Verdana" font-size="12">contenir</text>
</g>

<!-- Association avoir -->
<line x1="221" y1="135" x2="221" y2="236" stroke="#d6604d" stroke-width="2"/>
<text x="226.0" y="203" fill="#4d4d4d" font-family="Verdana" font-size="12">0,N</text>
<line x1="221" y1="337" x2="221" y2="236" stroke="#d6604d" stroke-width="2"/>
<text x="195.0" y="278" fill="#4d4d4d" font-family="Verdana" font-size="12">1,1</text>
<g id="association-avoir">
	<path d="M 230 211 a 14 14 90 0 1 14 14 V 236 h -46 V 225 a 14 14 90 0 1 14 -14" fill="#f4a582" stroke="#f4a582" stroke-width="0"/>
	<path d="M 244 236.0 v 11 a 14 14 90 0 1 -14 14 H 212 a 14 14 90 0 1 -14 -14 V 236.0 H 46" fill="#fddbc7" stroke="#fddbc7" stroke-width="0"/>
	<rect x="198" y="211" width="46" height="50" fill="none" rx="14" stroke="#d6604d" stroke-width="2"/>
	<line x1="198" y1="236" x2="244" y2="236" stroke="#d6604d" stroke-width="1"/>
	<text x="205" y="228.7" fill="#000000" font-family="Verdana" font-size="12">avoir</text>
</g>

<!-- Association inclure -->
<line x1="37" y1="530" x2="122" y2="530" stroke="#d6604d" stroke-width="2"/>
<text x="65" y="547.0" fill="#4d4d4d" font-family="Verdana" font-size="12">0,N</text>
<line x1="221" y1="530" x2="122" y2="530" stroke="#d6604d" stroke-width="2"/>
<text x="156" y="547.0" fill="#4d4d4d" font-family="Verdana" font-size="12">1,1</text>
<g id="association-inclure">
	<path d="M 136 505 a 14 14 90 0 1 14 14 V 530 h -56 V 519 a 14 14 90 0 1 14 -14" fill="#f4a582" stroke="#f4a582" stroke-width="0"/>
	<path d="M 150 530.0 v 11 a 14 14 90 0 1 -14 14 H 108 a 14 14 90 0 1 -14 -14 V 530.0 H 56" fill="#fddbc7" stroke="#fddbc7" stroke-width="0"/>
	<rect x="94" y="505" width="56" height="50" fill="none" rx="14" stroke="#d6604d" stroke-width="2"/>
	<line x1="94" y1="530" x2="150" y2="530" stroke="#d6604d" stroke-width="1"/>
	<text x="101" y="522.7" fill="#000000" font-family="Verdana" font-size="12">inclure</text>
</g>

<!-- Association voir -->
<line x1="37" y1="135" x2="221" y2="34" stroke="#d6604d" stroke-width="2"/>
<text x="70" y="132.355526861" fill="#4d4d4d" font-family="Verdana" font-size="12">0,N</text>
<line x1="418" y1="135" x2="221" y2="34" stroke="#d6604d" stroke-width="2"/>
<text x="352" y="128.000341377" fill="#4d4d4d" font-family="Verdana" font-size="12">0,N</text>
<g id="association-voir">
	<path d="M 226 9 a 14 14 90 0 1 14 14 V 34 h -38 V 23 a 14 14 90 0 1 14 -14" fill="#f4a582" stroke="#f4a582" stroke-width="0"/>
	<path d="M 240 34.0 v 11 a 14 14 90 0 1 -14 14 H 216 a 14 14 90 0 1 -14 -14 V 34.0 H 38" fill="#fddbc7" stroke="#fddbc7" stroke-width="0"/>
	<rect x="202" y="9" width="38" height="50" fill="none" rx="14" stroke="#d6604d" stroke-width="2"/>
	<line x1="202" y1="34" x2="240" y2="34" stroke="#d6604d" stroke-width="1"/>
	<text x="209" y="26.7" fill="#000000" font-family="Verdana" font-size="12">voir</text>
</g>

<!-- Association ecrire -->
<line x1="221" y1="135" x2="122" y2="135" stroke="#d6604d" stroke-width="2"/>
<text x="156" y="152.0" fill="#4d4d4d" font-family="Verdana" font-size="12">0,N</text>
<line x1="37" y1="135" x2="122" y2="135" stroke="#d6604d" stroke-width="2"/>
<text x="70" y="152.0" fill="#4d4d4d" font-family="Verdana" font-size="12">1,1</text>
<g id="association-ecrire">
	<path d="M 133 110 a 14 14 90 0 1 14 14 V 135 h -50 V 124 a 14 14 90 0 1 14 -14" fill="#f4a582" stroke="#f4a582" stroke-width="0"/>
	<path d="M 147 135.0 v 11 a 14 14 90 0 1 -14 14 H 111 a 14 14 90 0 1 -14 -14 V 135.0 H 50" fill="#fddbc7" stroke="#fddbc7" stroke-width="0"/>
	<rect x="97" y="110" width="50" height="50" fill="none" rx="14" stroke="#d6604d" stroke-width="2"/>
	<line x1="97" y1="135" x2="147" y2="135" stroke="#d6604d" stroke-width="1"/>
	<text x="104" y="127.7" fill="#000000" font-family="Verdana" font-size="12">ecrire</text>
</g>

<!-- Association associer -->
<line x1="221" y1="530" x2="324" y2="530" stroke="#d6604d" stroke-width="2"/>
<text x="265" y="547.0" fill="#4d4d4d" font-family="Verdana" font-size="12">0,N</text>
<line x1="418" y1="530" x2="324" y2="530" stroke="#d6604d" stroke-width="2"/>
<text x="368" y="547.0" fill="#4d4d4d" font-family="Verdana" font-size="12">0,N</text>
<g id="association-associer">
	<path d="M 342 505 a 14 14 90 0 1 14 14 V 530 h -64 V 519 a 14 14 90 0 1 14 -14" fill="#f4a582" stroke="#f4a582" stroke-width="0"/>
	<path d="M 356 530.0 v 11 a 14 14 90 0 1 -14 14 H 306 a 14 14 90 0 1 -14 -14 V 530.0 H 64" fill="#fddbc7" stroke="#fddbc7" stroke-width="0"/>
	<rect x="292" y="505" width="64" height="50" fill="none" rx="14" stroke="#d6604d" stroke-width="2"/>
	<line x1="292" y1="530" x2="356" y2="530" stroke="#d6604d" stroke-width="1"/>
	<text x="299" y="522.7" fill="#000000" font-family="Verdana" font-size="12">associer</text>
</g>

<!-- Association creer -->
<line x1="221" y1="135" x2="324" y2="135" stroke="#d6604d" stroke-width="2"/>
<text x="264" y="152.0" fill="#4d4d4d" font-family="Verdana" font-size="12">0,N</text>
<line x1="418" y1="135" x2="324" y2="135" stroke="#d6604d" stroke-width="2"/>
<text x="353" y="152.0" fill="#4d4d4d" font-family="Verdana" font-size="12">1,1</text>
<g id="association-creer">
	<path d="M 333 110 a 14 14 90 0 1 14 14 V 135 h -46 V 124 a 14 14 90 0 1 14 -14" fill="#f4a582" stroke="#f4a582" stroke-width="0"/>
	<path d="M 347 135.0 v 11 a 14 14 90 0 1 -14 14 H 315 a 14 14 90 0 1 -14 -14 V 135.0 H 46" fill="#fddbc7" stroke="#fddbc7" stroke-width="0"/>
	<rect x="301" y="110" width="46" height="50" fill="none" rx="14" stroke="#d6604d" stroke-width="2"/>
	<line x1="301" y1="135" x2="347" y2="135" stroke="#d6604d" stroke-width="1"/>
	<text x="308" y="127.7" fill="#000000" font-family="Verdana" font-size="12">creer</text>
</g>

<!-- Association consulte -->
<line x1="221" y1="337" x2="324" y2="236" stroke="#d6604d" stroke-width="2"/>
<text x="267" y="306.823150069" fill="#4d4d4d" font-family="Verdana" font-size="12">0,N</text>
<line x1="418" y1="135" x2="324" y2="236" stroke="#d6604d" stroke-width="2"/>
<text x="352" y="175.616515469" fill="#4d4d4d" font-family="Verdana" font-size="12">0,N</text>
<g id="association-consulte">
	<path d="M 343 211 a 14 14 90 0 1 14 14 V 236 h -66 V 225 a 14 14 90 0 1 14 -14" fill="#f4a582" stroke="#f4a582" stroke-width="0"/>
	<path d="M 357 236.0 v 11 a 14 14 90 0 1 -14 14 H 305 a 14 14 90 0 1 -14 -14 V 236.0 H 66" fill="#fddbc7" stroke="#fddbc7" stroke-width="0"/>
	<rect x="291" y="211" width="66" height="50" fill="none" rx="14" stroke="#d6604d" stroke-width="2"/>
	<line x1="291" y1="236" x2="357" y2="236" stroke="#d6604d" stroke-width="1"/>
	<text x="298" y="228.7" fill="#000000" font-family="Verdana" font-size="12">consulte</text>
</g>

<!-- Entity Kanban -->
<g id="entity-Kanban">
	<g id="frame-Kanban">
		<rect x="180" y="286" width="82" height="25" fill="#bababa" stroke="#bababa" stroke-width="0"/>
		<rect x="180" y="311.0" width="82" height="77" fill="#e0e0e0" stroke="#e0e0e0" stroke-width="0"/>
		<rect x="180" y="286" width="82" height="102" fill="none" stroke="#878787" stroke-width="2"/>
		<line x1="180" y1="311" x2="262" y2="311" stroke="#878787" stroke-width="1"/>
	</g>
	<text x="198" y="303.7" fill="#000000" font-family="Verdana" font-size="12">Kanban</text>
	<text x="185" y="328.7" fill="#000000" font-family="Verdana" font-size="12">title</text>
	<line x1="185" y1="331" x2="209" y2="331" stroke="#000000" stroke-width="1"/>
	<text x="185" y="345.8" fill="#000000" font-family="Verdana" font-size="12">slug</text>
	<text x="185" y="362.8" fill="#000000" font-family="Verdana" font-size="12">description</text>
	<text x="185" y="379.8" fill="#000000" font-family="Verdana" font-size="12">background</text>
</g>

<!-- Entity List -->
<g id="entity-List">
	<g id="frame-List">
		<rect x="14" y="496" width="46" height="25" fill="#bababa" stroke="#bababa" stroke-width="0"/>
		<rect x="14" y="521.0" width="46" height="43" fill="#e0e0e0" stroke="#e0e0e0" stroke-width="0"/>
		<rect x="14" y="496" width="46" height="68" fill="none" stroke="#878787" stroke-width="2"/>
		<line x1="14" y1="521" x2="60" y2="521" stroke="#878787" stroke-width="1"/>
	</g>
	<text x="26" y="513.7" fill="#000000" font-family="Verdana" font-size="12">List</text>
	<text x="19" y="538.8" fill="#000000" font-family="Verdana" font-size="12">name</text>
	<line x1="19" y1="541" x2="54" y2="541" stroke="#000000" stroke-width="1"/>
	<text x="19" y="555.8" fill="#000000" font-family="Verdana" font-size="12">order</text>
</g>

<!-- Entity Class -->
<g id="entity-Class">
	<g id="frame-Class">
		<rect x="379" y="93" width="78" height="25" fill="#bababa" stroke="#bababa" stroke-width="0"/>
		<rect x="379" y="118.0" width="78" height="59" fill="#e0e0e0" stroke="#e0e0e0" stroke-width="0"/>
		<rect x="379" y="93" width="78" height="84" fill="none" stroke="#878787" stroke-width="2"/>
		<line x1="379" y1="118" x2="457" y2="118" stroke="#878787" stroke-width="1"/>
	</g>
	<text x="402" y="110.7" fill="#000000" font-family="Verdana" font-size="12">Class</text>
	<text x="384" y="135.8" fill="#000000" font-family="Verdana" font-size="12">username</text>
	<line x1="384" y1="138" x2="445" y2="138" stroke="#000000" stroke-width="1"/>
	<text x="384" y="152.8" fill="#000000" font-family="Verdana" font-size="12">description</text>
	<text x="384" y="169.8" fill="#000000" font-family="Verdana" font-size="12">password</text>
</g>

<!-- Entity Tag -->
<g id="entity-Tag">
	<g id="frame-Tag">
		<rect x="395" y="496" width="46" height="25" fill="#bababa" stroke="#bababa" stroke-width="0"/>
		<rect x="395" y="521.0" width="46" height="43" fill="#e0e0e0" stroke="#e0e0e0" stroke-width="0"/>
		<rect x="395" y="496" width="46" height="68" fill="none" stroke="#878787" stroke-width="2"/>
		<line x1="395" y1="521" x2="441" y2="521" stroke="#878787" stroke-width="1"/>
	</g>
	<text x="406" y="513.7" fill="#000000" font-family="Verdana" font-size="12">Tag</text>
	<text x="400" y="538.8" fill="#000000" font-family="Verdana" font-size="12">name</text>
	<line x1="400" y1="541" x2="435" y2="541" stroke="#000000" stroke-width="1"/>
	<text x="400" y="555.8" fill="#000000" font-family="Verdana" font-size="12">color</text>
</g>

<!-- Entity Article -->
<g id="entity-Article">
	<g id="frame-Article">
		<rect x="9" y="84" width="56" height="25" fill="#bababa" stroke="#bababa" stroke-width="0"/>
		<rect x="9" y="109.0" width="56" height="77" fill="#e0e0e0" stroke="#e0e0e0" stroke-width="0"/>
		<rect x="9" y="84" width="56" height="102" fill="none" stroke="#878787" stroke-width="2"/>
		<line x1="9" y1="109" x2="65" y2="109" stroke="#878787" stroke-width="1"/>
	</g>
	<text x="17" y="101.7" fill="#000000" font-family="Verdana" font-size="12">Article</text>
	<text x="14" y="126.7" fill="#000000" font-family="Verdana" font-size="12">title</text>
	<line x1="14" y1="129" x2="38" y2="129" stroke="#000000" stroke-width="1"/>
	<text x="14" y="143.8" fill="#000000" font-family="Verdana" font-size="12">slug</text>
	<text x="14" y="160.8" fill="#000000" font-family="Verdana" font-size="12">excerpt</text>
	<text x="14" y="177.8" fill="#000000" font-family="Verdana" font-size="12">content</text>
</g>

<!-- Entity Teacher -->
<g id="entity-Teacher">
	<g id="frame-Teacher">
		<rect x="183" y="84" width="76" height="25" fill="#bababa" stroke="#bababa" stroke-width="0"/>
		<rect x="183" y="109.0" width="76" height="77" fill="#e0e0e0" stroke="#e0e0e0" stroke-width="0"/>
		<rect x="183" y="84" width="76" height="102" fill="none" stroke="#878787" stroke-width="2"/>
		<line x1="183" y1="109" x2="259" y2="109" stroke="#878787" stroke-width="1"/>
	</g>
	<text x="196" y="101.7" fill="#000000" font-family="Verdana" font-size="12">Teacher</text>
	<text x="188" y="126.7" fill="#000000" font-family="Verdana" font-size="12">username</text>
	<line x1="188" y1="129" x2="249" y2="129" stroke="#000000" stroke-width="1"/>
	<text x="188" y="143.8" fill="#000000" font-family="Verdana" font-size="12">password</text>
	<text x="188" y="160.8" fill="#000000" font-family="Verdana" font-size="12">first_name</text>
	<text x="188" y="177.8" fill="#000000" font-family="Verdana" font-size="12">last_name</text>
</g>

<!-- Entity Card -->
<g id="entity-Card">
	<g id="frame-Card">
		<rect x="182" y="488" width="78" height="25" fill="#bababa" stroke="#bababa" stroke-width="0"/>
		<rect x="182" y="513.0" width="78" height="59" fill="#e0e0e0" stroke="#e0e0e0" stroke-width="0"/>
		<rect x="182" y="488" width="78" height="84" fill="none" stroke="#878787" stroke-width="2"/>
		<line x1="182" y1="513" x2="260" y2="513" stroke="#878787" stroke-width="1"/>
	</g>
	<text x="206" y="505.7" fill="#000000" font-family="Verdana" font-size="12">Card</text>
	<text x="187" y="530.8" fill="#000000" font-family="Verdana" font-size="12">description</text>
	<line x1="187" y1="533" x2="254" y2="533" stroke="#000000" stroke-width="1"/>
	<text x="187" y="547.8" fill="#000000" font-family="Verdana" font-size="12">color</text>
	<text x="187" y="564.8" fill="#000000" font-family="Verdana" font-size="12">order</text>
</g>
</svg>